M48
;GenerationSoftware,Autodesk,EAGLE,9.6.2*%
;CreationDate,2022-08-14T12:15:17Z*%
FMAT,2
ICI,OFF
METRIC,TZ,000.000
T3C0.300
T2C0.700
T1C3.048
%
G90
M71
T1
X122682Y2540
X96266Y2540
X3810Y2540
X17018Y2540
X30226Y2540
X43434Y2540
X56642Y2540
X69850Y2540
X83058Y2540
X109474Y2540
X122682Y34798
X3810Y34798
X17018Y34798
X30226Y34798
X43434Y34798
X56642Y34798
X69850Y34798
X83058Y34798
X96266Y34798
X109474Y34798
T2
X120142Y57658
X6350Y15240
X1270Y15240
X1270Y25400
X19558Y15240
X14478Y15240
X14478Y25400
X32766Y15240
X27686Y15240
X27686Y25400
X45974Y15240
X40894Y15240
X40894Y25400
X59182Y15240
X54102Y15240
X54102Y25400
X72390Y15240
X67310Y15240
X67310Y25400
X85598Y15240
X80518Y15240
X80518Y25400
X98806Y15240
X93726Y15240
X93726Y25400
X112014Y15240
X106934Y15240
X106934Y25400
X125222Y15240
X120142Y15240
X120142Y25400
X6350Y47498
X1270Y47498
X1270Y57658
X19558Y47498
X14478Y47498
X14478Y57658
X32766Y47498
X27686Y47498
X27686Y57658
X45974Y47498
X40894Y47498
X40894Y57658
X59182Y47498
X54102Y47498
X54102Y57658
X72390Y47498
X67310Y47498
X67310Y57658
X85598Y47498
X80518Y47498
X80518Y57658
X98806Y47498
X93726Y47498
X93726Y57658
X112014Y47498
X106934Y47498
X106934Y57658
X125222Y47498
X120142Y47498
T3
X40386Y26479
X45974Y26670
X44958Y27940
X43434Y19431
X42418Y25590
X43434Y30480
X46164Y23830
X43053Y27940
X42164Y24193
X41910Y27940
X43942Y27940
X43942Y25590
X41402Y23241
X44640Y15240
X43815Y10160
X42228Y15240
X43053Y10160
X46164Y24638
X42164Y24892
X42164Y23495
X58801Y18161
X58928Y20701
X54483Y18161
X54356Y20701
X53594Y21336
X53594Y26479
X59182Y26670
X58166Y27940
X56642Y19431
X55626Y25590
X56642Y30480
X59372Y23830
X56261Y27940
X55372Y24193
X55118Y27940
X57150Y27940
X57150Y25590
X54610Y23241
X57848Y15240
X57023Y10160
X55435Y15240
X56261Y10160
X59372Y24638
X55372Y24892
X55372Y23495
X72009Y18161
X72136Y20701
X67691Y18161
X67564Y20701
X66802Y21336
X66802Y26479
X72390Y26670
X71374Y27940
X69850Y19431
X68834Y25590
X69850Y30480
X72581Y23830
X69469Y27940
X68580Y24193
X68326Y27940
X70358Y27940
X70358Y25590
X67818Y23241
X71057Y15240
X70231Y10160
X68644Y15240
X69469Y10160
X72581Y24638
X68580Y24892
X68580Y23495
X85217Y18161
X85344Y20701
X80899Y18161
X80772Y20701
X80010Y21336
X80010Y26479
X85598Y26670
X84582Y27940
X83058Y19431
X82042Y25590
X83058Y30480
X85789Y23830
X82677Y27940
X81788Y24193
X81534Y27940
X83566Y27940
X83566Y25590
X81026Y23241
X84265Y15240
X83439Y10160
X81852Y15240
X82677Y10160
X85789Y24638
X81788Y24892
X81788Y23495
X98425Y18161
X98552Y20701
X94107Y18161
X93980Y20701
X93218Y21336
X93218Y26479
X98806Y26670
X97790Y27940
X96266Y19431
X95250Y25590
X96266Y30480
X98996Y23830
X95885Y27940
X94996Y24193
X94742Y27940
X96774Y27940
X96774Y25590
X94234Y23241
X97472Y15240
X96647Y10160
X95059Y15240
X95885Y10160
X98996Y24638
X94996Y24892
X94996Y23495
X111633Y18161
X111760Y20701
X107315Y18161
X107188Y20701
X106426Y21336
X106426Y26479
X112014Y26670
X110998Y27940
X109474Y19431
X108458Y25590
X109474Y30480
X112204Y23830
X109093Y27940
X108204Y24193
X107950Y27940
X109982Y27940
X109982Y25590
X107442Y23241
X110680Y15240
X109855Y10160
X108267Y15240
X109093Y10160
X112204Y24638
X108204Y24892
X108204Y23495
X124841Y18161
X124968Y20701
X120523Y18161
X120396Y20701
X119634Y21336
X119634Y26479
X125222Y26670
X124206Y27940
X122682Y19431
X121666Y25590
X122682Y30480
X125412Y23830
X122301Y27940
X121412Y24193
X121158Y27940
X123190Y27940
X123190Y25590
X120650Y23241
X123888Y15240
X123063Y10160
X121475Y15240
X122301Y10160
X125412Y24638
X121412Y24892
X121412Y23495
X5969Y50419
X6096Y52959
X1651Y50419
X1524Y52959
X762Y53594
X762Y58737
X6350Y58928
X5334Y60198
X3810Y51689
X2794Y57848
X3810Y62738
X6540Y56088
X3429Y60198
X2540Y56451
X2286Y60198
X4318Y60198
X4318Y57848
X1778Y55499
X5017Y47498
X4191Y42418
X2604Y47498
X3429Y42418
X6540Y56896
X2540Y57150
X2540Y55753
X19177Y50419
X19304Y52959
X14859Y50419
X14732Y52959
X13970Y53594
X13970Y58737
X19558Y58928
X18542Y60198
X17018Y51689
X16002Y57848
X17018Y62738
X19749Y56088
X16637Y60198
X15748Y56451
X15494Y60198
X32957Y24638
X17526Y57848
X14986Y55499
X18225Y47498
X17399Y42418
X15811Y47498
X16637Y42418
X19749Y56896
X15748Y57150
X15748Y55753
X32385Y50419
X32512Y52959
X28067Y50419
X27940Y52959
X27178Y53594
X27178Y58737
X32766Y58928
X31750Y60198
X30226Y51689
X29210Y57848
X30226Y62738
X32957Y56088
X29845Y60198
X28956Y56451
X28702Y60198
X30734Y60198
X30734Y57848
X28194Y55499
X31432Y47498
X30607Y42418
X29019Y47498
X29845Y42418
X32957Y56896
X28956Y57150
X28956Y55753
X45593Y50419
X45720Y52959
X41275Y50419
X41148Y52959
X40386Y53594
X40386Y58737
X45974Y58928
X44958Y60198
X43434Y51689
X42418Y57848
X43434Y62738
X46164Y56088
X43053Y60198
X42164Y56451
X41910Y60198
X43942Y60198
X43942Y57848
X41402Y55499
X44640Y47498
X43815Y42418
X42228Y47498
X43053Y42418
X46164Y56896
X42164Y57150
X42164Y55753
X58801Y50419
X58928Y52959
X54483Y50419
X54356Y52959
X53594Y53594
X53594Y58737
X59182Y58928
X58166Y60198
X56642Y51689
X55626Y57848
X56642Y62738
X59372Y56088
X56261Y60198
X55372Y56451
X55118Y60198
X57150Y60198
X57150Y57848
X54610Y55499
X57848Y47498
X57023Y42418
X55435Y47498
X56261Y42418
X59372Y56896
X55372Y57150
X55372Y55753
X72009Y50419
X72136Y52959
X67691Y50419
X67564Y52959
X66802Y53594
X66802Y58737
X72390Y58928
X71374Y60198
X69850Y51689
X68834Y57848
X69850Y62738
X72581Y56088
X69469Y60198
X68580Y56451
X68326Y60198
X70358Y60198
X70358Y57848
X67818Y55499
X71057Y47498
X70231Y42418
X68644Y47498
X69469Y42418
X72581Y56896
X68580Y57150
X68580Y55753
X85217Y50419
X85344Y52959
X80899Y50419
X80772Y52959
X80010Y53594
X80010Y58737
X85598Y58928
X84582Y60198
X83058Y51689
X82042Y57848
X83058Y62738
X85789Y56088
X82677Y60198
X81788Y56451
X81534Y60198
X83566Y60198
X83566Y57848
X81026Y55499
X84265Y47498
X83439Y42418
X81852Y47498
X82677Y42418
X85789Y56896
X81788Y57150
X81788Y55753
X98425Y50419
X98552Y52959
X94107Y50419
X93980Y52959
X93218Y53594
X93218Y58737
X98806Y58928
X97790Y60198
X96266Y51689
X95250Y57848
X5969Y18161
X98996Y56088
X95885Y60198
X94996Y56451
X94742Y60198
X96774Y60198
X96774Y57848
X94234Y55499
X97472Y47498
X96647Y42418
X95059Y47498
X95885Y42418
X98996Y56896
X94996Y57150
X94996Y55753
X111633Y50419
X111760Y52959
X107315Y50419
X107188Y52959
X106426Y53594
X106426Y58737
X112014Y58928
X110998Y60198
X109474Y51689
X108458Y57848
X109474Y62738
X112204Y56088
X109093Y60198
X108204Y56451
X107950Y60198
X109982Y60198
X109982Y57848
X107442Y55499
X110680Y47498
X109855Y42418
X108267Y47498
X109093Y42418
X112204Y56896
X108204Y57150
X108204Y55753
X124841Y50419
X124968Y52959
X120523Y50419
X120396Y52959
X119634Y53594
X119634Y58737
X125222Y58928
X124206Y60198
X122682Y51689
X121666Y57848
X122682Y62738
X125412Y56088
X122301Y60198
X121412Y56451
X121158Y60198
X123190Y60198
X123190Y57848
X120650Y55499
X123888Y47498
X123063Y42418
X121475Y47498
X122301Y42418
X125412Y56896
X121412Y57150
X121412Y55753
X6096Y20701
X1651Y18161
X1524Y20701
X762Y21336
X762Y26479
X6350Y26670
X5334Y27940
X17526Y60198
X3810Y19431
X2794Y25590
X3810Y30480
X6540Y23830
X3429Y27940
X2540Y24193
X2286Y27940
X4318Y27940
X4318Y25590
X1778Y23241
X5017Y15240
X4191Y10160
X2604Y15240
X3429Y10160
X6540Y24638
X2540Y24892
X2540Y23495
X19177Y18161
X19304Y20701
X14859Y18161
X14732Y20701
X13970Y21336
X13970Y26479
X19558Y26670
X18542Y27940
X17018Y19431
X16002Y25590
X17018Y30480
X19749Y23830
X16637Y27940
X15748Y24193
X15494Y27940
X17526Y27940
X17526Y25590
X14986Y23241
X18225Y15240
X17399Y10160
X15811Y15240
X16637Y10160
X19749Y24638
X15748Y24892
X15748Y23495
X32385Y18161
X32512Y20701
X28067Y18161
X27940Y20701
X27178Y21336
X27178Y26479
X32766Y26670
X31750Y27940
X30226Y19431
X29210Y25590
X30226Y30480
X32957Y23830
X29845Y27940
X28956Y24193
X28702Y27940
X30734Y27940
X30734Y25590
X28194Y23241
X31432Y15240
X30607Y10160
X29019Y15240
X29845Y10160
X28956Y24892
X28956Y23495
X45593Y18161
X45720Y20701
X41275Y18161
X41148Y20701
X40386Y21336
X96266Y62738
M30